# xmcd CD database file
#
# Track frame offsets:
#	150
#	16605
#	32588
#	48328
#	62831
#	77701
#	93202
#	107839
#	122418
#	137350
#	151860
#	166657
#	180736
#	194702
#	210118
#	224855
#	239756
#	254693
#	270740
#	273455
#	279822
#	285719
#	287403
#	300983
#	304489
#	318570
#
# Disc length: 4436 seconds
#
# Revision: 0
# Processed by: cddbd v1.5.2PL0 Copyright (c) Steve Scherf et al.
# Submitted via: CDex 1.70beta2
#
DISCID=7211521a
DTITLE=Billie Holiday - Billie Holiday Complete Edition Volume 13 
DYEAR=1944
DGENRE=Jazz
TTITLE0=I'll Be Seeing You 
TTITLE1=I'll Be Seeing You
TTITLE2=I'll Be Seeing You
TTITLE3=I'm Yours
TTITLE4=I'm Yours
TTITLE5=I'm Yours
TTITLE6=Embraceable You
TTITLE7=Embraceable You
TTITLE8=Embraceable You
TTITLE9=As Time Goes By
TTITLE10=As Time Goes By
TTITLE11=He's Funny That Way
TTITLE12=He's Funny That Way
TTITLE13=Lover, Come Back To Me
TTITLE14=Lover, Come Back To Me
TTITLE15=He's Funny That Way
TTITLE16=He's Funny That Way
TTITLE17=He's Funny That Way
TTITLE18=Love Me Or Leave Me
TTITLE19=Love Me Or Leave Me
TTITLE20=Gloomy Sunday
TTITLE21=Mandy Is Two
TTITLE22=Mandy Is Two
TTITLE23=It's a Sin To Tell a Lie
TTITLE24=It's a Sin To Tell a Lie
TTITLE25=It's a Sin To Tell a Lie
EXTD=YEAR: 1944
EXTT0=
EXTT1=
EXTT2=
EXTT3=
EXTT4=
EXTT5=
EXTT6=
EXTT7=
EXTT8=
EXTT9=
EXTT10=
EXTT11=
EXTT12=
EXTT13=
EXTT14=
EXTT15=
EXTT16=
EXTT17=
EXTT18=
EXTT19=
EXTT20=
EXTT21=
EXTT22=
EXTT23=
EXTT24=
EXTT25=
PLAYORDER=
